<svg width="15" height="15" viewBox="0 0 15 15" fill="none" xmlns="http://www.w3.org/2000/svg">
<path d="M14.0833 8.25V2.41667C14.0833 1.49619 13.3371 0.75 12.4167 0.75H2.41667C1.49619 0.75 0.75 1.49619 0.75 2.41667V8.25M14.0833 8.25V12.4167C14.0833 13.3371 13.3371 14.0833 12.4167 14.0833H2.41667C1.49619 14.0833 0.75 13.3371 0.75 12.4167V8.25M14.0833 8.25H11.9285C11.7075 8.25 11.4955 8.3378 11.3393 8.49408L9.32741 10.5059C9.17113 10.6622 8.95917 10.75 8.73816 10.75H6.09518C5.87416 10.75 5.6622 10.6622 5.50592 10.5059L3.49408 8.49408C3.3378 8.3378 3.12584 8.25 2.90482 8.25H0.75" stroke="#64748B" stroke-width="1.5" stroke-linecap="round" stroke-linejoin="round"/>
</svg>
